<?xml version="1.0" encoding="iso-8859-1"?>
<!-- Generator: Adobe Illustrator 16.0.0, SVG Export Plug-In . SVG Version: 6.00 Build 0)  -->
<!DOCTYPE svg PUBLIC "-//W3C//DTD SVG 1.1//EN" "http://www.w3.org/Graphics/SVG/1.1/DTD/svg11.dtd">
<svg version="1.1" id="Capa_1" xmlns="http://www.w3.org/2000/svg" xmlns:xlink="http://www.w3.org/1999/xlink" x="0px" y="0px"
	 width="49.47px" height="49.47px" viewBox="0 0 49.47 49.47" style="enable-background:new 0 0 49.47 49.47;" xml:space="preserve"
	>
<g>
	<path d="M41.244,43.646l-1.558-4.375l-3.377,1.203l-2.978-8.354c4.201-2.283,6.412-6.769,5.01-10.705
		c-0.711-1.994-2.233-3.508-4.17-4.406C34.699,15.614,35,14.106,35,12.523C35,5.617,29.5,0,22.74,0
		c-6.761,0-12.26,5.617-12.26,12.521c0,1.676,0.33,3.273,0.917,4.736C9.87,18.33,8.739,19.97,8.36,21.943
		c-0.641,3.344,1.074,6.599,3.975,8.061L9.059,47.091l3.637,0.697l0.522-2.72l5.442,1.043l1.688-8.801l-5.442-1.045l1.05-5.474
		c0.985-0.036,1.927-0.288,2.797-0.685c0.754,0.568,1.612,1.002,2.545,1.252c0.084,0.074,0.175,0.14,0.263,0.209l0.86,17.25
		l3.7-0.185l-0.092-1.842l5.534-0.274l-0.169-3.396l-5.534,0.274l-0.103-2.058l5.534-0.274l-0.168-3.396l-5.535,0.275l-0.23-4.616
		c1.409,0.306,2.937,0.335,4.481,0.04l5.738,16.103l3.494-1.245l-1.203-3.377L41.244,43.646z M12.045,12.521
		c0-6.041,4.797-10.956,10.694-10.956S33.434,6.48,33.434,12.521c0,1.392-0.265,2.72-0.729,3.944
		c-2.086-0.581-4.486-0.527-6.829,0.308c-0.209,0.074-0.408,0.163-0.61,0.247c-0.764-0.218-1.572-0.322-2.408-0.281
		c-0.962,0.049-1.87,0.283-2.698,0.659c-0.881-0.665-1.917-1.15-3.073-1.372c-1.504-0.289-2.992-0.1-4.306,0.459
		C12.312,15.254,12.045,13.92,12.045,12.521z M29.816,20.713c-0.247-0.467-0.541-0.903-0.877-1.304
		c0.723-0.082,1.43-0.086,2.096,0.015C30.666,19.889,30.253,20.315,29.816,20.713z M16.366,21.297
		c-0.332-0.254-0.65-0.524-0.951-0.815c0.267-0.025,0.538-0.027,0.813,0.025c0.159,0.03,0.307,0.081,0.454,0.135
		C16.566,20.855,16.461,21.073,16.366,21.297z M23.373,27.073c-0.405,0.021-0.795-0.046-1.153-0.181
		c0.313-0.574,0.552-1.197,0.706-1.861c1.097-0.018,2.157-0.184,3.166-0.479C25.917,25.916,24.791,27.004,23.373,27.073z
		 M23.13,23.456c0.004-0.274-0.005-0.547-0.031-0.815c0.308-0.419,0.672-0.816,1.09-1.182c0.742,0.262,1.346,0.821,1.671,1.538
		C24.992,23.27,24.076,23.421,23.13,23.456z M15.137,26.189c-1.566-0.301-2.595-1.818-2.295-3.387
		c0.132-0.69,0.509-1.266,1.015-1.68c0.615,0.662,1.292,1.264,2.034,1.776c-0.094,0.536-0.135,1.09-0.107,1.656
		c0.029,0.572,0.142,1.116,0.292,1.645C15.77,26.244,15.456,26.251,15.137,26.189z M27.455,30.312
		c2.053-1.418,3.354-3.828,3.222-6.499c-0.027-0.536-0.113-1.056-0.246-1.555c0.832-0.688,1.567-1.486,2.2-2.369
		c1.238,0.53,2.212,1.414,2.641,2.618c0.98,2.751-1.148,6.032-4.747,7.312C29.485,30.191,28.444,30.333,27.455,30.312z"/>
</g>
<g>
</g>
<g>
</g>
<g>
</g>
<g>
</g>
<g>
</g>
<g>
</g>
<g>
</g>
<g>
</g>
<g>
</g>
<g>
</g>
<g>
</g>
<g>
</g>
<g>
</g>
<g>
</g>
<g>
</g>
</svg>
